<svg width="24" height="24" viewBox="0 0 24 24" fill="none" xmlns="http://www.w3.org/2000/svg">
  <!-- 나뭇잎 아이콘 -->
  <path
    d="M12 2C8.5 2 6 4.5 6 8C6 10.5 7.5 12.5 9.5 13.5C9 14.5 8.5 15.5 8.5 16.5C8.5 18.5 10 20 12 20C14 20 15.5 18.5 15.5 16.5C15.5 15.5 15 14.5 14.5 13.5C16.5 12.5 18 10.5 18 8C18 4.5 15.5 2 12 2Z"
    fill="#05c46b"
  />
  <path
    d="M12 4C14.2 4 16 5.8 16 8C16 9.5 14.8 10.8 13.5 11.3C13.2 11.1 12.9 11 12.5 11C11.7 11 11 11.7 11 12.5C11 12.9 11.1 13.2 11.3 13.5C10.8 14.8 9.5 16 8 16C5.8 16 4 14.2 4 12C4 9.8 5.8 8 8 8C8.5 8 9 8.2 9.3 8.5C9.8 7.2 11.1 6 12.5 6C13.2 6 13.8 6.2 14.3 6.5C14.2 5.2 13.2 4 12 4Z"
    fill="#02b95d"
  />
</svg>

