<svg width="20" height="20" viewBox="0 0 20 20" fill="none" xmlns="http://www.w3.org/2000/svg">
<path d="M3.33333 0.833328H8.33333M8.33333 0.833328V5.83333M8.33333 0.833328L4.7 4.69166C3.54978 5.84115 2.80432 7.33334 2.57595 8.94337C2.34759 10.5534 2.64868 12.194 3.43387 13.618C4.21905 15.0421 5.44579 16.1723 6.92922 16.8384C8.41266 17.5046 10.0724 17.6706 11.6584 17.3114C13.2443 16.9521 14.6706 16.0872 15.7222 14.8469C16.7738 13.6065 17.3939 12.058 17.4888 10.4346C17.5838 8.81128 17.1486 7.20103 16.2488 5.84653C15.3489 4.49204 14.0333 3.46669 12.5 2.92499" stroke="currentColor" stroke-width="2" stroke-linecap="round" stroke-linejoin="round"/>
</svg>
